<svg xmlns="http://www.w3.org/2000/svg" viewBox="0 0 500 500"><g id="freepik--background-complete--inject-10"><rect x="416.78" y="398.49" width="33.12" height="0.25" style="fill:#ebebeb"></rect><rect x="322.53" y="401.21" width="8.69" height="0.25" style="fill:#ebebeb"></rect><rect x="396.59" y="389.21" width="19.19" height="0.25" style="fill:#ebebeb"></rect><rect x="52.46" y="390.89" width="43.19" height="0.25" style="fill:#ebebeb"></rect><rect x="104.56" y="390.89" width="6.33" height="0.25" style="fill:#ebebeb"></rect><rect x="131.47" y="395.11" width="93.68" height="0.25" style="fill:#ebebeb"></rect><path d="M237,337.8H43.92a5.71,5.71,0,0,1-5.71-5.71V60.66A5.71,5.71,0,0,1,43.92,55H237a5.71,5.71,0,0,1,5.71,5.71V332.09A5.71,5.71,0,0,1,237,337.8ZM43.92,55.2a5.47,5.47,0,0,0-5.46,5.46V332.09a5.47,5.47,0,0,0,5.46,5.46H237a5.47,5.47,0,0,0,5.46-5.46V60.66A5.47,5.47,0,0,0,237,55.2Z" style="fill:#ebebeb"></path><path d="M453.31,337.8H260.21a5.72,5.72,0,0,1-5.71-5.71V60.66A5.72,5.72,0,0,1,260.21,55h193.1A5.71,5.71,0,0,1,459,60.66V332.09A5.71,5.71,0,0,1,453.31,337.8ZM260.21,55.2a5.47,5.47,0,0,0-5.46,5.46V332.09a5.47,5.47,0,0,0,5.46,5.46h193.1a5.47,5.47,0,0,0,5.46-5.46V60.66a5.47,5.47,0,0,0-5.46-5.46Z" style="fill:#ebebeb"></path><rect y="382.4" width="500" height="0.25" style="fill:#ebebeb"></rect><rect x="79.45" y="96.5" width="124.79" height="258.18" style="fill:#f0f0f0"></rect><rect x="86.95" y="104" width="109.79" height="243.18" style="fill:#fafafa"></rect><polygon points="130.04 347.18 163.04 347.18 194.02 104 161.02 104 130.04 347.18" style="fill:#f5f5f5"></polygon><polygon points="145.69 104 114.71 347.18 122.71 347.18 153.69 104 145.69 104" style="fill:#f5f5f5"></polygon><polygon points="205.82 102.76 77.87 102.76 75.17 96.46 208.52 96.46 205.82 102.76" style="fill:#f5f5f5"></polygon><polygon points="205.82 106.41 77.87 106.41 75.17 100.11 208.52 100.11 205.82 106.41" style="fill:#f0f0f0"></polygon><polygon points="205.82 110.05 77.87 110.05 75.17 103.75 208.52 103.75 205.82 110.05" style="fill:#e6e6e6"></polygon><polygon points="205.82 113.7 77.87 113.7 75.17 107.4 208.52 107.4 205.82 113.7" style="fill:#e0e0e0"></polygon><rect x="70.52" y="88.57" width="142.65" height="8.4" style="fill:#f0f0f0"></rect><path d="M72,173.13h0a1.45,1.45,0,0,1-1.45-1.46v-49A1.45,1.45,0,0,1,72,121.23h0a1.45,1.45,0,0,1,1.45,1.45v49A1.45,1.45,0,0,1,72,173.13Z" style="fill:#e0e0e0"></path><rect x="71.46" y="95.28" width="1.05" height="29.1" style="fill:#e0e0e0"></rect><rect x="295.76" y="96.5" width="124.79" height="258.18" style="fill:#f0f0f0"></rect><rect x="303.26" y="104" width="109.79" height="243.18" style="fill:#fafafa"></rect><polygon points="346.36 347.18 379.36 347.18 410.34 104 377.34 104 346.36 347.18" style="fill:#f5f5f5"></polygon><polygon points="362 104 331.02 347.18 339.02 347.18 370 104 362 104" style="fill:#f5f5f5"></polygon><polygon points="422.13 102.76 294.18 102.76 291.48 96.46 424.83 96.46 422.13 102.76" style="fill:#f5f5f5"></polygon><polygon points="422.13 106.41 294.18 106.41 291.48 100.11 424.83 100.11 422.13 106.41" style="fill:#f0f0f0"></polygon><polygon points="422.13 110.05 294.18 110.05 291.48 103.75 424.83 103.75 422.13 110.05" style="fill:#e6e6e6"></polygon><polygon points="422.13 113.7 294.18 113.7 291.48 107.4 424.83 107.4 422.13 113.7" style="fill:#e0e0e0"></polygon><rect x="286.83" y="88.57" width="142.65" height="8.4" style="fill:#f0f0f0"></rect><path d="M288.3,173.13h0a1.45,1.45,0,0,1-1.45-1.46v-49a1.45,1.45,0,0,1,1.45-1.45h0a1.45,1.45,0,0,1,1.45,1.45v49A1.45,1.45,0,0,1,288.3,173.13Z" style="fill:#e0e0e0"></path><rect x="287.77" y="95.28" width="1.05" height="29.1" style="fill:#e0e0e0"></rect><polygon points="401.52 284.58 407.08 357.45 410.46 357.15 402.19 284.28 401.52 284.58" style="fill:#e0e0e0"></polygon><polygon points="431.5 294.76 421.58 354.93 418.79 354.43 430.96 294.46 431.5 294.76" style="fill:#e0e0e0"></polygon><polygon points="418.14 270.99 416.39 359.17 412.99 358.95 417.46 270.66 418.14 270.99" style="fill:#e0e0e0"></polygon><path d="M401.72,284c-3.83-.71-15.33,0-15.33,2.67s11.5-.33,10.5,2.33-11.67,1.84-11.34,4.34,10.17-1.34,10,.33-8.5,4.17-6.83,6,7.67-4.3,7.67-1.9-4.37,6.76-1.67,7.4c4.24,1,3-7.47,4.5-7.4s1.56,7.1,4.11,6.73-2.11-7.88-1.28-9.19,6.67,4.69,8.5,3.36-6.83-6.67-5.66-8.33,6.26,3.5,7.38.83S404.85,284.55,401.72,284Z" style="fill:#f0f0f0"></path><path d="M418.25,275.76c3.45-1.79,12.08-9.44,10.44-11.54s-8.85,7.34-9.71,4.63,8.07-8.63,6.26-10.4-7.19,7.31-8.08,5.9,4.13-8.52,1.69-8.94-3.39,8.11-4.87,6.22-.73-8-3.25-6.86c-4,1.83,2.24,7.74,1,8.61s-5.61-4.64-7.39-2.78,6.52,4.91,6.67,6.46-8.15.41-8.77,2.58,9.49,1.05,9.6,3.08-7.1,1.1-6.33,3.89S415.42,277.23,418.25,275.76Z" style="fill:#ebebeb"></path><path d="M418.92,273.21c3.83-.71,15.34,0,15.34,2.67s-11.5-.34-10.5,2.33,11.66,1.83,11.33,4.33-10.17-1.33-10,.34,8.5,4.16,6.83,6-7.66-4.31-7.66-1.9,4.36,6.76,1.66,7.4c-4.23,1-3-7.47-4.5-7.4s-1.56,7.1-4.1,6.73,2.1-7.88,1.27-9.19-6.67,4.69-8.5,3.36,6.83-6.67,5.67-8.34-6.27,3.5-7.39.84S415.79,273.79,418.92,273.21Z" style="fill:#e6e6e6"></path><path d="M428,294.9c2.2-2.35,10.25-7.53,11.56-5.75s-7.86,5.43-5.88,6.72,8.7-4.5,9.71-2.67-7.45,4.1-6.52,5.14,7.73-1.39,7.51.65-7.24.89-6.06,2.5,6.25,2.37,4.75,4.13c-2.34,2.75-5.67-3.52-6.64-2.74s2.45,5.51.56,6.52-2.46-6.31-3.66-6.77-2.15,6.41-4,6.42,1.29-7.81-.31-8.36-2.47,5.42-4.53,4.19S426.16,296.83,428,294.9Z" style="fill:#f5f5f5"></path><path d="M403.81,307c-3.17-.42-12.72,0-12.72,1.61s9.54-.2,8.71,1.41-9.68,1.1-9.4,2.61,8.43-.81,8.29.2-7.05,2.51-5.67,3.61,6.36-2.59,6.36-1.15-3.62,4.08-1.38,4.46c3.52.6,2.49-4.5,3.73-4.46s1.3,4.28,3.41,4.06-1.75-4.75-1.05-5.53,5.53,2.82,7.05,2-5.67-4-4.7-5,5.2,2.11,6.12.5S406.41,307.36,403.81,307Z" style="fill:#e6e6e6"></path><path d="M426.61,314.54c3.17-.42,12.72,0,12.72,1.61s-9.54-.2-8.71,1.41,9.68,1.1,9.4,2.61-8.44-.81-8.3.2,7,2.51,5.67,3.61-6.36-2.59-6.36-1.15,3.62,4.08,1.38,4.46c-3.51.6-2.49-4.5-3.73-4.46s-1.29,4.28-3.41,4.06,1.75-4.75,1.06-5.54-5.53,2.83-7.05,2,5.67-4,4.7-5-5.2,2.11-6.13.5S424,314.9,426.61,314.54Z" style="fill:#ebebeb"></path><polygon points="393.61 334.33 399.61 384 429.13 384 435.13 334.33 393.61 334.33" style="fill:#ebebeb"></polygon></g><g id="freepik--Shadow--inject-10"><ellipse id="freepik--path--inject-10" cx="245.18" cy="412.39" rx="193.89" ry="11.32" style="fill:#f5f5f5"></ellipse></g><g id="freepik--Graphics--inject-10"><path d="M413.7,173.06a1.25,1.25,0,0,0,.45,1,4,4,0,0,0,1.33.65v-3.42a2.54,2.54,0,0,0-1.35.69A1.53,1.53,0,0,0,413.7,173.06Z" style="fill:#407BFF"></path><path d="M417.89,178.84v3.32a2.64,2.64,0,0,0,1.3-.63,1.44,1.44,0,0,0,.43-1,1.25,1.25,0,0,0-.45-1A3.71,3.71,0,0,0,417.89,178.84Z" style="fill:#407BFF"></path><path d="M416.49,158.77a17.95,17.95,0,1,0,17.95,17.95A18,18,0,0,0,416.49,158.77Zm5.56,24.82a7,7,0,0,1-4.16,1.74V188h-2.41v-2.62a13.39,13.39,0,0,1-3.39-.63,8.41,8.41,0,0,1-2.6-1.3l1.32-2.94a8.85,8.85,0,0,0,2.14,1.14,10,10,0,0,0,2.53.57v-4a17.73,17.73,0,0,1-2.89-.91,5.08,5.08,0,0,1-2-1.48,4,4,0,0,1-.8-2.59,4.66,4.66,0,0,1,1.46-3.43,7,7,0,0,1,4.2-1.74v-2.67h2.41V168a10.53,10.53,0,0,1,4.88,1.47l-1.2,3a9.53,9.53,0,0,0-3.68-1.25v4.09a16.72,16.72,0,0,1,2.85.88,5,5,0,0,1,2,1.47,3.92,3.92,0,0,1,.79,2.56A4.57,4.57,0,0,1,422.05,183.59Z" style="fill:#407BFF"></path><g style="opacity:0.6000000000000001"><path d="M413.7,173.06a1.25,1.25,0,0,0,.45,1,4,4,0,0,0,1.33.65v-3.42a2.54,2.54,0,0,0-1.35.69A1.53,1.53,0,0,0,413.7,173.06Z" style="fill:#fff"></path><path d="M417.89,178.84v3.32a2.64,2.64,0,0,0,1.3-.63,1.44,1.44,0,0,0,.43-1,1.25,1.25,0,0,0-.45-1A3.71,3.71,0,0,0,417.89,178.84Z" style="fill:#fff"></path><path d="M416.49,158.77a17.95,17.95,0,1,0,17.95,17.95A18,18,0,0,0,416.49,158.77Zm5.56,24.82a7,7,0,0,1-4.16,1.74V188h-2.41v-2.62a13.39,13.39,0,0,1-3.39-.63,8.41,8.41,0,0,1-2.6-1.3l1.32-2.94a8.85,8.85,0,0,0,2.14,1.14,10,10,0,0,0,2.53.57v-4a17.73,17.73,0,0,1-2.89-.91,5.08,5.08,0,0,1-2-1.48,4,4,0,0,1-.8-2.59,4.66,4.66,0,0,1,1.46-3.43,7,7,0,0,1,4.2-1.74v-2.67h2.41V168a10.53,10.53,0,0,1,4.88,1.47l-1.2,3a9.53,9.53,0,0,0-3.68-1.25v4.09a16.72,16.72,0,0,1,2.85.88,5,5,0,0,1,2,1.47,3.92,3.92,0,0,1,.79,2.56A4.57,4.57,0,0,1,422.05,183.59Z" style="fill:#fff"></path></g><path d="M62.27,235.24a.65.65,0,0,0,.24.51,2,2,0,0,0,.69.33v-1.77a1.4,1.4,0,0,0-.7.36A.81.81,0,0,0,62.27,235.24Z" style="fill:#407BFF"></path><path d="M64.44,238.23v1.71a1.28,1.28,0,0,0,.67-.32.74.74,0,0,0,.23-.54.68.68,0,0,0-.23-.51A2,2,0,0,0,64.44,238.23Z" style="fill:#407BFF"></path><path d="M63.72,227.84A9.29,9.29,0,1,0,73,237.13,9.29,9.29,0,0,0,63.72,227.84Zm2.88,12.84a3.65,3.65,0,0,1-2.16.91V243H63.2v-1.35a7.22,7.22,0,0,1-1.76-.33,4.47,4.47,0,0,1-1.35-.67l.69-1.52a4.15,4.15,0,0,0,1.11.58,4.89,4.89,0,0,0,1.31.3v-2.08a10,10,0,0,1-1.5-.47,2.52,2.52,0,0,1-1-.77,2.05,2.05,0,0,1-.41-1.33,2.41,2.41,0,0,1,.75-1.78,3.62,3.62,0,0,1,2.18-.9v-1.39h1.24v1.36a5.6,5.6,0,0,1,2.53.76l-.62,1.53a5,5,0,0,0-1.91-.64v2.11a10.08,10.08,0,0,1,1.48.46,2.53,2.53,0,0,1,1,.76,2,2,0,0,1,.41,1.32A2.36,2.36,0,0,1,66.6,240.68Z" style="fill:#407BFF"></path><g style="opacity:0.6000000000000001"><path d="M62.27,235.24a.65.65,0,0,0,.24.51,2,2,0,0,0,.69.33v-1.77a1.4,1.4,0,0,0-.7.36A.81.81,0,0,0,62.27,235.24Z" style="fill:#fff"></path><path d="M64.44,238.23v1.71a1.28,1.28,0,0,0,.67-.32.74.74,0,0,0,.23-.54.68.68,0,0,0-.23-.51A2,2,0,0,0,64.44,238.23Z" style="fill:#fff"></path><path d="M63.72,227.84A9.29,9.29,0,1,0,73,237.13,9.29,9.29,0,0,0,63.72,227.84Zm2.88,12.84a3.65,3.65,0,0,1-2.16.91V243H63.2v-1.35a7.22,7.22,0,0,1-1.76-.33,4.47,4.47,0,0,1-1.35-.67l.69-1.52a4.15,4.15,0,0,0,1.11.58,4.89,4.89,0,0,0,1.31.3v-2.08a10,10,0,0,1-1.5-.47,2.52,2.52,0,0,1-1-.77,2.05,2.05,0,0,1-.41-1.33,2.41,2.41,0,0,1,.75-1.78,3.62,3.62,0,0,1,2.18-.9v-1.39h1.24v1.36a5.6,5.6,0,0,1,2.53.76l-.62,1.53a5,5,0,0,0-1.91-.64v2.11a10.08,10.08,0,0,1,1.48.46,2.53,2.53,0,0,1,1,.76,2,2,0,0,1,.41,1.32A2.36,2.36,0,0,1,66.6,240.68Z" style="fill:#fff"></path></g><path d="M404.34,213.08a.77.77,0,0,0,.3.63,2.24,2.24,0,0,0,.85.42v-2.2a1.7,1.7,0,0,0-.87.44A1,1,0,0,0,404.34,213.08Z" style="fill:#407BFF"></path><path d="M407,216.8V219a1.7,1.7,0,0,0,.84-.41.89.89,0,0,0,.28-.67.8.8,0,0,0-.29-.63A2.45,2.45,0,0,0,407,216.8Z" style="fill:#407BFF"></path><path d="M406.14,203.86a11.58,11.58,0,1,0,11.58,11.58A11.58,11.58,0,0,0,406.14,203.86Zm3.59,16A4.54,4.54,0,0,1,407,221v1.73h-1.55V221a8.24,8.24,0,0,1-2.19-.4,5.72,5.72,0,0,1-1.68-.84l.86-1.89a5.62,5.62,0,0,0,1.38.73,6.53,6.53,0,0,0,1.63.37v-2.6a10.79,10.79,0,0,1-1.86-.59,3.26,3.26,0,0,1-1.28-.95,2.56,2.56,0,0,1-.51-1.67,3,3,0,0,1,.94-2.21,4.48,4.48,0,0,1,2.71-1.13v-1.72H407v1.69a6.81,6.81,0,0,1,3.15.95l-.77,1.91a6.07,6.07,0,0,0-2.38-.81v2.64a11.58,11.58,0,0,1,1.84.57,3.23,3.23,0,0,1,1.27.95,2.52,2.52,0,0,1,.51,1.65A2.94,2.94,0,0,1,409.73,219.87Z" style="fill:#407BFF"></path><g style="opacity:0.6000000000000001"><path d="M404.34,213.08a.77.77,0,0,0,.3.63,2.24,2.24,0,0,0,.85.42v-2.2a1.7,1.7,0,0,0-.87.44A1,1,0,0,0,404.34,213.08Z" style="fill:#fff"></path><path d="M407,216.8V219a1.7,1.7,0,0,0,.84-.41.89.89,0,0,0,.28-.67.8.8,0,0,0-.29-.63A2.45,2.45,0,0,0,407,216.8Z" style="fill:#fff"></path><path d="M406.14,203.86a11.58,11.58,0,1,0,11.58,11.58A11.58,11.58,0,0,0,406.14,203.86Zm3.59,16A4.54,4.54,0,0,1,407,221v1.73h-1.55V221a8.24,8.24,0,0,1-2.19-.4,5.72,5.72,0,0,1-1.68-.84l.86-1.89a5.62,5.62,0,0,0,1.38.73,6.53,6.53,0,0,0,1.63.37v-2.6a10.79,10.79,0,0,1-1.86-.59,3.26,3.26,0,0,1-1.28-.95,2.56,2.56,0,0,1-.51-1.67,3,3,0,0,1,.94-2.21,4.48,4.48,0,0,1,2.71-1.13v-1.72H407v1.69a6.81,6.81,0,0,1,3.15.95l-.77,1.91a6.07,6.07,0,0,0-2.38-.81v2.64a11.58,11.58,0,0,1,1.84.57,3.23,3.23,0,0,1,1.27.95,2.52,2.52,0,0,1,.51,1.65A2.94,2.94,0,0,1,409.73,219.87Z" style="fill:#fff"></path></g><path d="M76.15,266.62a.8.8,0,0,0,.3.64,2.4,2.4,0,0,0,.85.41v-2.2a1.7,1.7,0,0,0-.87.44A1,1,0,0,0,76.15,266.62Z" style="fill:#407BFF"></path><path d="M78.85,270.34v2.15a1.74,1.74,0,0,0,.84-.41.88.88,0,0,0,.28-.66.82.82,0,0,0-.29-.64A2.55,2.55,0,0,0,78.85,270.34Z" style="fill:#407BFF"></path><path d="M78,257.4A11.58,11.58,0,1,0,89.53,269,11.58,11.58,0,0,0,78,257.4Zm3.59,16a4.54,4.54,0,0,1-2.69,1.13v1.74H77.3v-1.7a8.24,8.24,0,0,1-2.19-.4,5.72,5.72,0,0,1-1.68-.84l.86-1.89a5.62,5.62,0,0,0,1.38.73,6.53,6.53,0,0,0,1.63.37V270a12.48,12.48,0,0,1-1.86-.59,3.31,3.31,0,0,1-1.28-1,2.56,2.56,0,0,1-.51-1.67,3,3,0,0,1,.94-2.21,4.48,4.48,0,0,1,2.71-1.13v-1.72h1.55v1.69a6.85,6.85,0,0,1,3.15.95l-.77,1.91a6.41,6.41,0,0,0-2.38-.81v2.64a11.58,11.58,0,0,1,1.84.57,3.23,3.23,0,0,1,1.27.95,2.54,2.54,0,0,1,.51,1.65A2.93,2.93,0,0,1,81.54,273.41Z" style="fill:#407BFF"></path><g style="opacity:0.6000000000000001"><path d="M76.15,266.62a.8.8,0,0,0,.3.64,2.4,2.4,0,0,0,.85.41v-2.2a1.7,1.7,0,0,0-.87.44A1,1,0,0,0,76.15,266.62Z" style="fill:#fff"></path><path d="M78.85,270.34v2.15a1.74,1.74,0,0,0,.84-.41.88.88,0,0,0,.28-.66.82.82,0,0,0-.29-.64A2.55,2.55,0,0,0,78.85,270.34Z" style="fill:#fff"></path><path d="M78,257.4A11.58,11.58,0,1,0,89.53,269,11.58,11.58,0,0,0,78,257.4Zm3.59,16a4.54,4.54,0,0,1-2.69,1.13v1.74H77.3v-1.7a8.24,8.24,0,0,1-2.19-.4,5.72,5.72,0,0,1-1.68-.84l.86-1.89a5.62,5.62,0,0,0,1.38.73,6.53,6.53,0,0,0,1.63.37V270a12.48,12.48,0,0,1-1.86-.59,3.31,3.31,0,0,1-1.28-1,2.56,2.56,0,0,1-.51-1.67,3,3,0,0,1,.94-2.21,4.48,4.48,0,0,1,2.71-1.13v-1.72h1.55v1.69a6.85,6.85,0,0,1,3.15.95l-.77,1.91a6.41,6.41,0,0,0-2.38-.81v2.64a11.58,11.58,0,0,1,1.84.57,3.23,3.23,0,0,1,1.27.95,2.54,2.54,0,0,1,.51,1.65A2.93,2.93,0,0,1,81.54,273.41Z" style="fill:#fff"></path></g><path d="M417.11,117.65a5.69,5.69,0,0,0-3.3-1.05h-92.4a5.74,5.74,0,0,0-5.74,5.75V136.1a5.67,5.67,0,0,0,.77,2.87,24.63,24.63,0,0,0,3.61,3.78,5.74,5.74,0,0,0,3.36,1.09h92.4a5.74,5.74,0,0,0,5.74-5.74V124.35a5.69,5.69,0,0,0-1.11-3.39A29.75,29.75,0,0,0,417.11,117.65Z" style="fill:#407BFF"></path><path d="M417.11,117.65a5.69,5.69,0,0,0-3.3-1.05h-92.4a5.74,5.74,0,0,0-5.74,5.75V136.1a5.67,5.67,0,0,0,.77,2.87,24.63,24.63,0,0,0,3.61,3.78,5.74,5.74,0,0,0,3.36,1.09h92.4a5.74,5.74,0,0,0,5.74-5.74V124.35a5.69,5.69,0,0,0-1.11-3.39A29.75,29.75,0,0,0,417.11,117.65Z" style="fill:#fff;opacity:0.4"></path><rect x="315.67" y="116.6" width="103.88" height="25.23" rx="5.74" style="fill:#fff;opacity:0.4"></rect><polygon points="329.39 120.96 331.84 125.91 337.3 126.7 333.35 130.56 334.28 135.99 329.39 133.43 324.51 135.99 325.44 130.56 321.49 126.7 326.95 125.91 329.39 120.96" style="fill:#407BFF"></polygon><polygon points="348.79 120.96 351.23 125.91 356.69 126.7 352.74 130.56 353.68 135.99 348.79 133.43 343.91 135.99 344.84 130.56 340.89 126.7 346.35 125.91 348.79 120.96" style="fill:#407BFF"></polygon><polygon points="368.19 120.96 370.63 125.91 376.09 126.7 372.14 130.56 373.07 135.99 368.19 133.43 363.3 135.99 364.24 130.56 360.28 126.7 365.75 125.91 368.19 120.96" style="fill:#407BFF"></polygon><polygon points="387.59 120.96 390.03 125.91 395.49 126.7 391.54 130.56 392.47 135.99 387.59 133.43 382.7 135.99 383.63 130.56 379.68 126.7 385.14 125.91 387.59 120.96" style="fill:#407BFF"></polygon><polygon points="406.98 120.96 409.43 125.91 414.89 126.7 410.94 130.56 411.87 135.99 406.98 133.43 402.1 135.99 403.03 130.56 399.08 126.7 404.54 125.91 406.98 120.96" style="fill:#407BFF"></polygon><polygon points="329.39 120.96 331.84 125.91 337.3 126.7 333.35 130.56 334.28 135.99 329.39 133.43 324.51 135.99 325.44 130.56 321.49 126.7 326.95 125.91 329.39 120.96" style="fill:#fff;opacity:0.9"></polygon><polygon points="348.79 120.96 351.23 125.91 356.69 126.7 352.74 130.56 353.68 135.99 348.79 133.43 343.91 135.99 344.84 130.56 340.89 126.7 346.35 125.91 348.79 120.96" style="fill:#fff;opacity:0.9"></polygon><polygon points="368.19 120.96 370.63 125.91 376.09 126.7 372.14 130.56 373.07 135.99 368.19 133.43 363.3 135.99 364.24 130.56 360.28 126.7 365.75 125.91 368.19 120.96" style="fill:#fff;opacity:0.9"></polygon><polygon points="387.59 120.96 390.03 125.91 395.49 126.7 391.54 130.56 392.47 135.99 387.59 133.43 382.7 135.99 383.63 130.56 379.68 126.7 385.14 125.91 387.59 120.96" style="fill:#fff;opacity:0.9"></polygon><polygon points="406.98 120.96 409.43 125.91 414.89 126.7 410.94 130.56 411.87 135.99 406.98 133.43 402.1 135.99 403.03 130.56 399.08 126.7 404.54 125.91 406.98 120.96" style="fill:#fff;opacity:0.9"></polygon><path d="M267.83,269.28v-3.77a9.38,9.38,0,0,0-18.76,0v3.77h-2.51v19.58h23.78V269.28Zm-16.24-3.77a6.86,6.86,0,1,1,13.72,0v3.77H251.59ZM259.7,279v3.16a1.25,1.25,0,0,1-2.5,0V279a2.31,2.31,0,0,1-1-2.42,2.32,2.32,0,0,1,4.6.47A2.29,2.29,0,0,1,259.7,279Z" style="fill:#407BFF"></path><path d="M267.83,269.28v-3.77a9.38,9.38,0,0,0-18.76,0v3.77h-2.51v19.58h23.78V269.28Zm-16.24-3.77a6.86,6.86,0,1,1,13.72,0v3.77H251.59ZM259.7,279v3.16a1.25,1.25,0,0,1-2.5,0V279a2.31,2.31,0,0,1-1-2.42,2.32,2.32,0,0,1,4.6.47A2.29,2.29,0,0,1,259.7,279Z" style="fill:#fff;opacity:0.6000000000000001"></path><circle cx="67.13" cy="166.5" r="3.42" style="fill:#407BFF"></circle><path d="M95,166.5a3.42,3.42,0,1,1-3.41-3.41A3.42,3.42,0,0,1,95,166.5Z" style="fill:#407BFF"></path><circle cx="116.1" cy="166.5" r="3.41" style="fill:#407BFF"></circle><path d="M70.55,143.64a3.42,3.42,0,1,1-3.42-3.42A3.42,3.42,0,0,1,70.55,143.64Z" style="fill:#407BFF"></path><path d="M95,143.64a3.42,3.42,0,1,1-3.41-3.42A3.41,3.41,0,0,1,95,143.64Z" style="fill:#407BFF"></path><path d="M119.51,143.64a3.42,3.42,0,1,1-3.41-3.42A3.41,3.41,0,0,1,119.51,143.64Z" style="fill:#407BFF"></path><circle cx="67.13" cy="120.77" r="3.42" style="fill:#407BFF"></circle><path d="M95,120.77a3.42,3.42,0,1,1-3.41-3.41A3.42,3.42,0,0,1,95,120.77Z" style="fill:#407BFF"></path><circle cx="116.1" cy="120.77" r="3.41" style="fill:#407BFF"></circle><g style="opacity:0.30000000000000004"><circle cx="67.13" cy="166.5" r="3.42" style="fill:#fff"></circle><path d="M95,166.5a3.42,3.42,0,1,1-3.41-3.41A3.42,3.42,0,0,1,95,166.5Z" style="fill:#fff"></path><circle cx="116.1" cy="166.5" r="3.41" style="fill:#fff"></circle><path d="M70.55,143.64a3.42,3.42,0,1,1-3.42-3.42A3.42,3.42,0,0,1,70.55,143.64Z" style="fill:#fff"></path><path d="M95,143.64a3.42,3.42,0,1,1-3.41-3.42A3.41,3.41,0,0,1,95,143.64Z" style="fill:#fff"></path><path d="M119.51,143.64a3.42,3.42,0,1,1-3.41-3.42A3.41,3.41,0,0,1,119.51,143.64Z" style="fill:#fff"></path><circle cx="67.13" cy="120.77" r="3.42" style="fill:#fff"></circle><path d="M95,120.77a3.42,3.42,0,1,1-3.41-3.41A3.42,3.42,0,0,1,95,120.77Z" style="fill:#fff"></path><circle cx="116.1" cy="120.77" r="3.41" style="fill:#fff"></circle></g><path d="M116.1,166.5a1.65,1.65,0,0,1-1.65,1.65H67.94a2,2,0,0,1-1.34-3.4l45.33-42.33H68.78a1.65,1.65,0,0,1-1.65-1.65h0a1.64,1.64,0,0,1,1.65-1.64h46.51a2,2,0,0,1,1.34,3.4L71.31,164.86h43.14a1.65,1.65,0,0,1,1.65,1.64Z" style="fill:#407BFF"></path><g style="opacity:0.6000000000000001"><path d="M116.1,166.5a1.65,1.65,0,0,1-1.65,1.65H67.94a2,2,0,0,1-1.34-3.4l45.33-42.33H68.78a1.65,1.65,0,0,1-1.65-1.65h0a1.64,1.64,0,0,1,1.65-1.64h46.51a2,2,0,0,1,1.34,3.4L71.31,164.86h43.14a1.65,1.65,0,0,1,1.65,1.64Z" style="fill:#fff"></path></g></g><g id="freepik--device-2--inject-10"><path d="M297.59,354.94h72.22a14.71,14.71,0,0,0,14.71-14.71V167.62a14.72,14.72,0,0,0-14.71-14.71H297.59a14.71,14.71,0,0,0-14.71,14.71V340.23A14.7,14.7,0,0,0,297.59,354.94Z" style="fill:#407BFF"></path><path d="M301.34,354.94h72.22a14.71,14.71,0,0,0,14.71-14.71V167.62a14.72,14.72,0,0,0-14.71-14.71H301.34a14.71,14.71,0,0,0-14.71,14.71V340.23A14.7,14.7,0,0,0,301.34,354.94Z" style="fill:#263238"></path><path d="M301.34,156.29h18.77a2.43,2.43,0,0,1,2.42,2.13l.08.59a6,6,0,0,0,5.92,5.21h17.84a6,6,0,0,0,5.92-5.21l.07-.59a2.45,2.45,0,0,1,2.43-2.13h18.77a11.33,11.33,0,0,1,11.33,11.33V340.23a11.34,11.34,0,0,1-11.33,11.34H301.34A11.34,11.34,0,0,1,290,340.23V167.62A11.34,11.34,0,0,1,301.34,156.29Z" style="fill:#407BFF"></path><path d="M301.34,156.29h18.77a2.43,2.43,0,0,1,2.42,2.13l.08.59a6,6,0,0,0,5.92,5.21h17.84a6,6,0,0,0,5.92-5.21l.07-.59a2.45,2.45,0,0,1,2.43-2.13h18.77a11.33,11.33,0,0,1,11.33,11.33V340.23a11.34,11.34,0,0,1-11.33,11.34H301.34A11.34,11.34,0,0,1,290,340.23V167.62A11.34,11.34,0,0,1,301.34,156.29Z" style="fill:#fff;opacity:0.8"></path><g style="opacity:0.9"><path d="M341.82,158.2a1.43,1.43,0,1,0,1.43-1.44A1.43,1.43,0,0,0,341.82,158.2Z"></path><path d="M331.65,156.76h4.91a1.44,1.44,0,1,1,0,2.87h-4.91a1.44,1.44,0,1,1,0-2.87Z"></path></g><rect x="298.96" y="162.67" width="1.52" height="1.52" style="fill:#407BFF"></rect><polygon points="302 162.67 302 164.19 303.52 164.19 303.52 162.67 303.52 161.15 302 161.15 302 162.67" style="fill:#407BFF"></polygon><polygon points="305.04 159.63 305.04 161.15 305.04 162.67 305.04 164.19 306.56 164.19 306.56 162.67 306.56 161.15 306.56 159.63 305.04 159.63" style="fill:#407BFF"></polygon><path d="M370.35,159.73v1.12h-.74v2.22h.74v1.12H377v-4.46Zm3,3.34h-2.23v-2.22h2.23Z" style="fill:#407BFF"></path><circle cx="337.22" cy="312.11" r="13.47" style="fill:#fff;opacity:0.9"></circle><path d="M337,319.31l-11.75-11.75a2.61,2.61,0,0,1,0-3.71h0a2.61,2.61,0,0,1,3.71,0l8,8,13.26-13.26a2.62,2.62,0,0,1,3.71,0h0a2.63,2.63,0,0,1,0,3.71Z" style="fill:#407BFF"></path></g><g id="freepik--Money--inject-10"><path d="M379.39,287H295.64a2.5,2.5,0,0,1-2.5-2.5h0a2.5,2.5,0,0,1,2.5-2.5h83.75a2.5,2.5,0,0,1,2.5,2.5h0A2.5,2.5,0,0,1,379.39,287Z" style="opacity:0.30000000000000004"></path><rect x="139.74" y="237.33" width="84.66" height="47.08" style="fill:#407BFF"></rect><rect x="139.74" y="237.33" width="84.66" height="47.08" style="fill:#fff;opacity:0.30000000000000004"></rect><path d="M220.6,277V244.74a3.61,3.61,0,0,1-3.61-3.61H147.15a3.61,3.61,0,0,1-3.61,3.61V277a3.61,3.61,0,0,1,3.61,3.61H217A3.61,3.61,0,0,1,220.6,277Z" style="fill:#fff;opacity:0.8"></path><path d="M180,258.18a.93.93,0,0,0,.34.73,2.74,2.74,0,0,0,1,.48v-2.52a2,2,0,0,0-1,.51A1.16,1.16,0,0,0,180,258.18Z" style="fill:#407BFF"></path><path d="M183.1,262.43v2.45a2,2,0,0,0,1-.46,1.07,1.07,0,0,0,.32-.77.91.91,0,0,0-.33-.72A2.83,2.83,0,0,0,183.1,262.43Z" style="fill:#407BFF"></path><path d="M182.07,247.67a13.21,13.21,0,1,0,13.2,13.2A13.21,13.21,0,0,0,182.07,247.67Zm4.09,18.26a5.14,5.14,0,0,1-3.06,1.28v2h-1.78v-1.93a9.71,9.71,0,0,1-2.49-.46,6.19,6.19,0,0,1-1.91-1l1-2.16a6.2,6.2,0,0,0,1.58.83,7,7,0,0,0,1.85.43v-3a13.34,13.34,0,0,1-2.12-.67,3.74,3.74,0,0,1-1.45-1.09,2.92,2.92,0,0,1-.59-1.9,3.41,3.41,0,0,1,1.08-2.53,5.05,5.05,0,0,1,3.08-1.28v-2h1.78v1.93a7.8,7.8,0,0,1,3.59,1.08l-.89,2.18a7,7,0,0,0-2.7-.92v3a12.1,12.1,0,0,1,2.09.65,3.62,3.62,0,0,1,1.45,1.08,2.85,2.85,0,0,1,.58,1.88A3.34,3.34,0,0,1,186.16,265.93Z" style="fill:#407BFF"></path><g style="opacity:0.30000000000000004"><path d="M180,258.18a.93.93,0,0,0,.34.73,2.74,2.74,0,0,0,1,.48v-2.52a2,2,0,0,0-1,.51A1.16,1.16,0,0,0,180,258.18Z" style="fill:#fff"></path><path d="M183.1,262.43v2.45a2,2,0,0,0,1-.46,1.07,1.07,0,0,0,.32-.77.91.91,0,0,0-.33-.72A2.83,2.83,0,0,0,183.1,262.43Z" style="fill:#fff"></path><path d="M182.07,247.67a13.21,13.21,0,1,0,13.2,13.2A13.21,13.21,0,0,0,182.07,247.67Zm4.09,18.26a5.14,5.14,0,0,1-3.06,1.28v2h-1.78v-1.93a9.71,9.71,0,0,1-2.49-.46,6.19,6.19,0,0,1-1.91-1l1-2.16a6.2,6.2,0,0,0,1.58.83,7,7,0,0,0,1.85.43v-3a13.34,13.34,0,0,1-2.12-.67,3.74,3.74,0,0,1-1.45-1.09,2.92,2.92,0,0,1-.59-1.9,3.41,3.41,0,0,1,1.08-2.53,5.05,5.05,0,0,1,3.08-1.28v-2h1.78v1.93a7.8,7.8,0,0,1,3.59,1.08l-.89,2.18a7,7,0,0,0-2.7-.92v3a12.1,12.1,0,0,1,2.09.65,3.62,3.62,0,0,1,1.45,1.08,2.85,2.85,0,0,1,.58,1.88A3.34,3.34,0,0,1,186.16,265.93Z" style="fill:#fff"></path></g><rect x="164.45" y="188.78" width="47.08" height="84.66" transform="translate(-97.47 316.35) rotate(-67.5)" style="fill:#407BFF"></rect><rect x="164.45" y="188.78" width="47.08" height="84.66" transform="translate(-97.47 316.35) rotate(-67.5)" style="fill:#fff;opacity:0.30000000000000004"></rect><path d="M158.57,201.46l-12.35,29.81a3.61,3.61,0,0,1,1.95,4.72l64.53,26.72a3.6,3.6,0,0,1,4.71-1.95L229.76,231a3.62,3.62,0,0,1-1.95-4.72L163.28,199.5A3.6,3.6,0,0,1,158.57,201.46Z" style="fill:#fff;opacity:0.8"></path><path d="M188.86,234.38a.9.9,0,0,0,0-.8,2.67,2.67,0,0,0-.71-.81l-1,2.32a1.92,1.92,0,0,0,1.1-.09A1.16,1.16,0,0,0,188.86,234.38Z" style="fill:#407BFF"></path><path d="M187.64,229.28l.93-2.26a1.83,1.83,0,0,0-1.06.06,1,1,0,0,0-.58.58.9.9,0,0,0,0,.8A3,3,0,0,0,187.64,229.28Z" style="fill:#407BFF"></path><path d="M182.94,243.31a13.2,13.2,0,1,0-7.15-17.25A13.2,13.2,0,0,0,182.94,243.31Zm3.21-18.44a5.19,5.19,0,0,1,3.32,0l.75-1.83,1.64.68-.74,1.78a9.74,9.74,0,0,1,2.13,1.38,6.27,6.27,0,0,1,1.4,1.61l-1.72,1.63a6.24,6.24,0,0,0-1.14-1.37,7.13,7.13,0,0,0-1.56-1.11l-1.13,2.73a13.64,13.64,0,0,1,1.71,1.44,3.66,3.66,0,0,1,.92,1.56,2.86,2.86,0,0,1-.19,2,3.36,3.36,0,0,1-1.95,1.92,5.09,5.09,0,0,1-3.35,0l-.75,1.81-1.63-.68.73-1.78a7.81,7.81,0,0,1-2.9-2.37l1.65-1.68a7,7,0,0,0,2.15,1.89l1.15-2.78a13.21,13.21,0,0,1-1.69-1.4,3.66,3.66,0,0,1-.92-1.55,2.84,2.84,0,0,1,.18-2A3.36,3.36,0,0,1,186.15,224.87Z" style="fill:#407BFF"></path><g style="opacity:0.30000000000000004"><path d="M188.86,234.38a.9.9,0,0,0,0-.8,2.67,2.67,0,0,0-.71-.81l-1,2.32a1.92,1.92,0,0,0,1.1-.09A1.16,1.16,0,0,0,188.86,234.38Z" style="fill:#fff"></path><path d="M187.64,229.28l.93-2.26a1.83,1.83,0,0,0-1.06.06,1,1,0,0,0-.58.58.9.9,0,0,0,0,.8A3,3,0,0,0,187.64,229.28Z" style="fill:#fff"></path><path d="M182.94,243.31a13.2,13.2,0,1,0-7.15-17.25A13.2,13.2,0,0,0,182.94,243.31Zm3.21-18.44a5.19,5.19,0,0,1,3.32,0l.75-1.83,1.64.68-.74,1.78a9.74,9.74,0,0,1,2.13,1.38,6.27,6.27,0,0,1,1.4,1.61l-1.72,1.63a6.24,6.24,0,0,0-1.14-1.37,7.13,7.13,0,0,0-1.56-1.11l-1.13,2.73a13.64,13.64,0,0,1,1.71,1.44,3.66,3.66,0,0,1,.92,1.56,2.86,2.86,0,0,1-.19,2,3.36,3.36,0,0,1-1.95,1.92,5.09,5.09,0,0,1-3.35,0l-.75,1.81-1.63-.68.73-1.78a7.81,7.81,0,0,1-2.9-2.37l1.65-1.68a7,7,0,0,0,2.15,1.89l1.15-2.78a13.21,13.21,0,0,1-1.69-1.4,3.66,3.66,0,0,1-.92-1.55,2.84,2.84,0,0,1,.18-2A3.36,3.36,0,0,1,186.15,224.87Z" style="fill:#fff"></path></g><rect x="181.31" y="163.55" width="47.08" height="84.66" transform="translate(-85.58 205.15) rotate(-45)" style="fill:#407BFF"></rect><rect x="181.31" y="163.55" width="47.08" height="84.66" transform="translate(-85.58 205.15) rotate(-45)" style="fill:#fff;opacity:0.30000000000000004"></rect><path d="M189,167.22,166.2,190a3.6,3.6,0,0,1,0,5.1l49.38,49.39a3.62,3.62,0,0,1,5.11,0l22.81-22.82a3.6,3.6,0,0,1,0-5.1l-49.38-49.39A3.6,3.6,0,0,1,189,167.22Z" style="fill:#fff;opacity:0.8"></path><path d="M204.4,209.23a.92.92,0,0,0,.28-.75,2.89,2.89,0,0,0-.36-1l-1.77,1.78a1.85,1.85,0,0,0,1,.34A1.13,1.13,0,0,0,204.4,209.23Z" style="fill:#407BFF"></path><path d="M205.23,204.05l1.72-1.73a1.92,1.92,0,0,0-1-.35,1,1,0,0,0-.76.31.92.92,0,0,0-.28.75A2.79,2.79,0,0,0,205.23,204.05Z" style="fill:#407BFF"></path><path d="M195.51,215.21a13.21,13.21,0,1,0,0-18.67A13.21,13.21,0,0,0,195.51,215.21Zm10-15.8a5.14,5.14,0,0,1,3.08,1.26l1.4-1.41,1.25,1.26-1.36,1.36a9.58,9.58,0,0,1,1.43,2.09,6.06,6.06,0,0,1,.68,2l-2.22.84a6.12,6.12,0,0,0-.52-1.7,7.47,7.47,0,0,0-1-1.62l-2.1,2.09a12.69,12.69,0,0,1,1,2,3.82,3.82,0,0,1,.26,1.8,3,3,0,0,1-.93,1.76,3.43,3.43,0,0,1-2.55,1,5.06,5.06,0,0,1-3.09-1.28l-1.39,1.39L198.24,211l1.36-1.36a7.75,7.75,0,0,1-1.77-3.31l2.16-.91a7.12,7.12,0,0,0,1.27,2.57l2.13-2.13a12.05,12.05,0,0,1-1-1.94,3.78,3.78,0,0,1-.26-1.79,2.93,2.93,0,0,1,.92-1.74A3.35,3.35,0,0,1,205.53,199.41Z" style="fill:#407BFF"></path><g style="opacity:0.30000000000000004"><path d="M204.4,209.23a.92.92,0,0,0,.28-.75,2.89,2.89,0,0,0-.36-1l-1.77,1.78a1.85,1.85,0,0,0,1,.34A1.13,1.13,0,0,0,204.4,209.23Z" style="fill:#fff"></path><path d="M205.23,204.05l1.72-1.73a1.92,1.92,0,0,0-1-.35,1,1,0,0,0-.76.31.92.92,0,0,0-.28.75A2.79,2.79,0,0,0,205.23,204.05Z" style="fill:#fff"></path><path d="M195.51,215.21a13.21,13.21,0,1,0,0-18.67A13.21,13.21,0,0,0,195.51,215.21Zm10-15.8a5.14,5.14,0,0,1,3.08,1.26l1.4-1.41,1.25,1.26-1.36,1.36a9.58,9.58,0,0,1,1.43,2.09,6.06,6.06,0,0,1,.68,2l-2.22.84a6.12,6.12,0,0,0-.52-1.7,7.47,7.47,0,0,0-1-1.62l-2.1,2.09a12.69,12.69,0,0,1,1,2,3.82,3.82,0,0,1,.26,1.8,3,3,0,0,1-.93,1.76,3.43,3.43,0,0,1-2.55,1,5.06,5.06,0,0,1-3.09-1.28l-1.39,1.39L198.24,211l1.36-1.36a7.75,7.75,0,0,1-1.77-3.31l2.16-.91a7.12,7.12,0,0,0,1.27,2.57l2.13-2.13a12.05,12.05,0,0,1-1-1.94,3.78,3.78,0,0,1-.26-1.79,2.93,2.93,0,0,1,.92-1.74A3.35,3.35,0,0,1,205.53,199.41Z" style="fill:#fff"></path></g><rect x="206.54" y="146.69" width="47.08" height="84.66" transform="translate(-54.82 102.44) rotate(-22.5)" style="fill:#407BFF"></rect><rect x="206.54" y="146.69" width="47.08" height="84.66" transform="translate(-54.82 102.44) rotate(-22.5)" style="fill:#fff;opacity:0.30000000000000004"></rect><path d="M230.25,147.24l-29.82,12.35a3.61,3.61,0,0,1-2,4.72l26.73,64.52a3.6,3.6,0,0,1,4.71,1.95l29.82-12.34a3.6,3.6,0,0,1,1.95-4.72L235,149.2A3.61,3.61,0,0,1,230.25,147.24Z" style="fill:#fff;opacity:0.8"></path><path d="M228.38,191.94a.9.9,0,0,0,.55-.59,3,3,0,0,0,.07-1.08l-2.33,1a1.8,1.8,0,0,0,.85.72A1.11,1.11,0,0,0,228.38,191.94Z" style="fill:#407BFF"></path><path d="M231.13,187.47l2.26-.94a1.94,1.94,0,0,0-.79-.7,1,1,0,0,0-.83,0,.94.94,0,0,0-.54.58A2.86,2.86,0,0,0,231.13,187.47Z" style="fill:#407BFF"></path><path d="M217.88,194.07A13.21,13.21,0,1,0,225,176.81,13.22,13.22,0,0,0,217.88,194.07Zm15.31-10.77a5.19,5.19,0,0,1,2.36,2.34l1.83-.76.68,1.64-1.79.73a9.64,9.64,0,0,1,.53,2.49,5.94,5.94,0,0,1-.15,2.13l-2.37-.07a6.34,6.34,0,0,0,.17-1.78,7.05,7.05,0,0,0-.32-1.88l-2.73,1.13a13.65,13.65,0,0,1,.19,2.22,3.8,3.8,0,0,1-.45,1.76,2.9,2.9,0,0,1-1.53,1.27,3.42,3.42,0,0,1-2.75,0,5.09,5.09,0,0,1-2.36-2.37l-1.82.76-.68-1.64,1.79-.74a7.67,7.67,0,0,1-.38-3.73l2.35,0a7,7,0,0,0,.19,2.86l2.78-1.16a12.33,12.33,0,0,1-.21-2.18,3.59,3.59,0,0,1,.45-1.75,2.92,2.92,0,0,1,1.51-1.26A3.36,3.36,0,0,1,233.19,183.3Z" style="fill:#407BFF"></path><g style="opacity:0.30000000000000004"><path d="M228.38,191.94a.9.9,0,0,0,.55-.59,3,3,0,0,0,.07-1.08l-2.33,1a1.8,1.8,0,0,0,.85.72A1.11,1.11,0,0,0,228.38,191.94Z" style="fill:#fff"></path><path d="M231.13,187.47l2.26-.94a1.94,1.94,0,0,0-.79-.7,1,1,0,0,0-.83,0,.94.94,0,0,0-.54.58A2.86,2.86,0,0,0,231.13,187.47Z" style="fill:#fff"></path><path d="M217.88,194.07A13.21,13.21,0,1,0,225,176.81,13.22,13.22,0,0,0,217.88,194.07Zm15.31-10.77a5.19,5.19,0,0,1,2.36,2.34l1.83-.76.68,1.64-1.79.73a9.64,9.64,0,0,1,.53,2.49,5.94,5.94,0,0,1-.15,2.13l-2.37-.07a6.34,6.34,0,0,0,.17-1.78,7.05,7.05,0,0,0-.32-1.88l-2.73,1.13a13.65,13.65,0,0,1,.19,2.22,3.8,3.8,0,0,1-.45,1.76,2.9,2.9,0,0,1-1.53,1.27,3.42,3.42,0,0,1-2.75,0,5.09,5.09,0,0,1-2.36-2.37l-1.82.76-.68-1.64,1.79-.74a7.67,7.67,0,0,1-.38-3.73l2.35,0a7,7,0,0,0,.19,2.86l2.78-1.16a12.33,12.33,0,0,1-.21-2.18,3.59,3.59,0,0,1,.45-1.75,2.92,2.92,0,0,1,1.51-1.26A3.36,3.36,0,0,1,233.19,183.3Z" style="fill:#fff"></path></g><rect x="236.31" y="140.76" width="47.08" height="84.66" style="fill:#407BFF"></rect><rect x="236.31" y="140.76" width="47.08" height="84.66" style="fill:#fff;opacity:0.30000000000000004"></rect><path d="M276,144.56H243.71a3.6,3.6,0,0,1-3.6,3.61V218a3.61,3.61,0,0,1,3.6,3.61H276a3.61,3.61,0,0,1,3.6-3.61V148.17A3.6,3.6,0,0,1,276,144.56Z" style="fill:#fff;opacity:0.8"></path><path d="M257.16,185.15a.94.94,0,0,0,.73-.34,2.92,2.92,0,0,0,.47-1h-2.51a1.85,1.85,0,0,0,.5,1A1.17,1.17,0,0,0,257.16,185.15Z" style="fill:#407BFF"></path><path d="M261.41,182.07h2.44a1.88,1.88,0,0,0-.46-1,1,1,0,0,0-.76-.32.92.92,0,0,0-.73.33A2.79,2.79,0,0,0,261.41,182.07Z" style="fill:#407BFF"></path><path d="M246.65,183.09a13.2,13.2,0,1,0,13.2-13.2A13.2,13.2,0,0,0,246.65,183.09ZM264.9,179a5.15,5.15,0,0,1,1.29,3.07h2v1.77h-1.93a9.71,9.71,0,0,1-.46,2.49,6.42,6.42,0,0,1-.95,1.91l-2.17-1a6.32,6.32,0,0,0,.84-1.57,7.58,7.58,0,0,0,.42-1.86H261a14.38,14.38,0,0,1-.68,2.12,3.74,3.74,0,0,1-1.09,1.45,2.9,2.9,0,0,1-1.9.59,3.42,3.42,0,0,1-2.52-1.07,5.18,5.18,0,0,1-1.29-3.09h-2v-1.77h1.93a7.84,7.84,0,0,1,1.08-3.6l2.18.89a6.88,6.88,0,0,0-.92,2.71h3a12,12,0,0,1,.64-2.1,3.69,3.69,0,0,1,1.08-1.45,3,3,0,0,1,1.89-.58A3.34,3.34,0,0,1,264.9,179Z" style="fill:#407BFF"></path><g style="opacity:0.30000000000000004"><path d="M257.16,185.15a.94.94,0,0,0,.73-.34,2.92,2.92,0,0,0,.47-1h-2.51a1.85,1.85,0,0,0,.5,1A1.17,1.17,0,0,0,257.16,185.15Z" style="fill:#fff"></path><path d="M261.41,182.07h2.44a1.88,1.88,0,0,0-.46-1,1,1,0,0,0-.76-.32.92.92,0,0,0-.73.33A2.79,2.79,0,0,0,261.41,182.07Z" style="fill:#fff"></path><path d="M246.65,183.09a13.2,13.2,0,1,0,13.2-13.2A13.2,13.2,0,0,0,246.65,183.09ZM264.9,179a5.15,5.15,0,0,1,1.29,3.07h2v1.77h-1.93a9.71,9.71,0,0,1-.46,2.49,6.42,6.42,0,0,1-.95,1.91l-2.17-1a6.32,6.32,0,0,0,.84-1.57,7.58,7.58,0,0,0,.42-1.86H261a14.38,14.38,0,0,1-.68,2.12,3.74,3.74,0,0,1-1.09,1.45,2.9,2.9,0,0,1-1.9.59,3.42,3.42,0,0,1-2.52-1.07,5.18,5.18,0,0,1-1.29-3.09h-2v-1.77h1.93a7.84,7.84,0,0,1,1.08-3.6l2.18.89a6.88,6.88,0,0,0-.92,2.71h3a12,12,0,0,1,.64-2.1,3.69,3.69,0,0,1,1.08-1.45,3,3,0,0,1,1.89-.58A3.34,3.34,0,0,1,264.9,179Z" style="fill:#fff"></path></g><rect x="247.29" y="165.47" width="84.66" height="47.08" transform="translate(4.16 384.25) rotate(-67.5)" style="fill:#407BFF"></rect><rect x="247.29" y="165.47" width="84.66" height="47.08" transform="translate(4.16 384.25) rotate(-67.5)" style="fill:#fff;opacity:0.30000000000000004"></rect><path d="M319.27,159.59l-29.82-12.35a3.61,3.61,0,0,1-4.71,2L258,213.72a3.6,3.6,0,0,1,1.95,4.72l29.82,12.34a3.6,3.6,0,0,1,4.71-1.95l26.73-64.52A3.61,3.61,0,0,1,319.27,159.59Z" style="fill:#fff;opacity:0.8"></path><path d="M286.34,189.88a.93.93,0,0,0,.8,0,2.89,2.89,0,0,0,.82-.72l-2.33-1a2,2,0,0,0,.09,1.11A1.17,1.17,0,0,0,286.34,189.88Z" style="fill:#407BFF"></path><path d="M291.45,188.66l2.26.94a2,2,0,0,0-.06-1.06,1,1,0,0,0-.59-.59.91.91,0,0,0-.79,0A2.8,2.8,0,0,0,291.45,188.66Z" style="fill:#407BFF"></path><path d="M277.42,184a13.21,13.21,0,1,0,17.25-7.15A13.19,13.19,0,0,0,277.42,184Zm18.43,3.21a5.13,5.13,0,0,1,0,3.32l1.84.76-.68,1.64-1.78-.74a9.74,9.74,0,0,1-1.38,2.13,6.46,6.46,0,0,1-1.62,1.4L290.62,194a7.11,7.11,0,0,0,2.47-2.69l-2.73-1.13a13.36,13.36,0,0,1-1.43,1.7,3.78,3.78,0,0,1-1.56.93,3,3,0,0,1-2-.19,3.46,3.46,0,0,1-1.92-2,5.13,5.13,0,0,1,0-3.34l-1.82-.75.68-1.64,1.78.74a7.78,7.78,0,0,1,2.38-2.91l1.67,1.65a7.09,7.09,0,0,0-1.89,2.15l2.78,1.16a12.71,12.71,0,0,1,1.4-1.7,3.83,3.83,0,0,1,1.55-.92,2.94,2.94,0,0,1,2,.19A3.36,3.36,0,0,1,295.85,187.17Z" style="fill:#407BFF"></path><g style="opacity:0.30000000000000004"><path d="M286.34,189.88a.93.93,0,0,0,.8,0,2.89,2.89,0,0,0,.82-.72l-2.33-1a2,2,0,0,0,.09,1.11A1.17,1.17,0,0,0,286.34,189.88Z" style="fill:#fff"></path><path d="M291.45,188.66l2.26.94a2,2,0,0,0-.06-1.06,1,1,0,0,0-.59-.59.91.91,0,0,0-.79,0A2.8,2.8,0,0,0,291.45,188.66Z" style="fill:#fff"></path><path d="M277.42,184a13.21,13.21,0,1,0,17.25-7.15A13.19,13.19,0,0,0,277.42,184Zm18.43,3.21a5.13,5.13,0,0,1,0,3.32l1.84.76-.68,1.64-1.78-.74a9.74,9.74,0,0,1-1.38,2.13,6.46,6.46,0,0,1-1.62,1.4L290.62,194a7.11,7.11,0,0,0,2.47-2.69l-2.73-1.13a13.36,13.36,0,0,1-1.43,1.7,3.78,3.78,0,0,1-1.56.93,3,3,0,0,1-2-.19,3.46,3.46,0,0,1-1.92-2,5.13,5.13,0,0,1,0-3.34l-1.82-.75.68-1.64,1.78.74a7.78,7.78,0,0,1,2.38-2.91l1.67,1.65a7.09,7.09,0,0,0-1.89,2.15l2.78,1.16a12.71,12.71,0,0,1,1.4-1.7,3.83,3.83,0,0,1,1.55-.92,2.94,2.94,0,0,1,2,.19A3.36,3.36,0,0,1,295.85,187.17Z" style="fill:#fff"></path></g><rect x="272.52" y="182.33" width="84.66" height="47.08" transform="translate(-53.36 282.93) rotate(-45)" style="fill:#407BFF"></rect><rect x="272.52" y="182.33" width="84.66" height="47.08" transform="translate(-53.36 282.93) rotate(-45)" style="fill:#fff;opacity:0.30000000000000004"></rect><path d="M353.5,190l-22.82-22.82a3.6,3.6,0,0,1-5.1,0L276.2,216.61a3.6,3.6,0,0,1,0,5.1L299,244.53a3.62,3.62,0,0,1,5.11,0l49.38-49.39A3.6,3.6,0,0,1,353.5,190Z" style="fill:#fff;opacity:0.8"></path><path d="M311.49,205.42a.93.93,0,0,0,.76.28,2.81,2.81,0,0,0,1-.35l-1.78-1.78a2,2,0,0,0-.34,1.06A1.15,1.15,0,0,0,311.49,205.42Z" style="fill:#407BFF"></path><path d="M316.68,206.25l1.73,1.73a2,2,0,0,0,.35-1,1.06,1.06,0,0,0-.32-.77.9.9,0,0,0-.74-.28A2.87,2.87,0,0,0,316.68,206.25Z" style="fill:#407BFF"></path><path d="M305.51,196.54a13.21,13.21,0,1,0,18.68,0A13.21,13.21,0,0,0,305.51,196.54Zm15.81,10a5.24,5.24,0,0,1-1.26,3.07l1.4,1.4-1.25,1.25-1.37-1.36a9.74,9.74,0,0,1-2.09,1.44,6.32,6.32,0,0,1-2,.68l-.84-2.22a6.26,6.26,0,0,0,1.7-.53,6.92,6.92,0,0,0,1.61-1l-2.09-2.09a13.59,13.59,0,0,1-2,1,3.67,3.67,0,0,1-1.79.25,2.91,2.91,0,0,1-1.76-.93,3.42,3.42,0,0,1-1-2.54,5.12,5.12,0,0,1,1.28-3.09l-1.39-1.39,1.25-1.26,1.37,1.37a7.8,7.8,0,0,1,3.3-1.78l.92,2.17a7,7,0,0,0-2.57,1.26l2.13,2.13a12.87,12.87,0,0,1,1.94-1,3.62,3.62,0,0,1,1.78-.25,2.87,2.87,0,0,1,1.75.92A3.37,3.37,0,0,1,321.32,206.56Z" style="fill:#407BFF"></path><g style="opacity:0.30000000000000004"><path d="M311.49,205.42a.93.93,0,0,0,.76.28,2.81,2.81,0,0,0,1-.35l-1.78-1.78a2,2,0,0,0-.34,1.06A1.15,1.15,0,0,0,311.49,205.42Z" style="fill:#fff"></path><path d="M316.68,206.25l1.73,1.73a2,2,0,0,0,.35-1,1.06,1.06,0,0,0-.32-.77.9.9,0,0,0-.74-.28A2.87,2.87,0,0,0,316.68,206.25Z" style="fill:#fff"></path><path d="M305.51,196.54a13.21,13.21,0,1,0,18.68,0A13.21,13.21,0,0,0,305.51,196.54Zm15.81,10a5.24,5.24,0,0,1-1.26,3.07l1.4,1.4-1.25,1.25-1.37-1.36a9.74,9.74,0,0,1-2.09,1.44,6.32,6.32,0,0,1-2,.68l-.84-2.22a6.26,6.26,0,0,0,1.7-.53,6.92,6.92,0,0,0,1.61-1l-2.09-2.09a13.59,13.59,0,0,1-2,1,3.67,3.67,0,0,1-1.79.25,2.91,2.91,0,0,1-1.76-.93,3.42,3.42,0,0,1-1-2.54,5.12,5.12,0,0,1,1.28-3.09l-1.39-1.39,1.25-1.26,1.37,1.37a7.8,7.8,0,0,1,3.3-1.78l.92,2.17a7,7,0,0,0-2.57,1.26l2.13,2.13a12.87,12.87,0,0,1,1.94-1,3.62,3.62,0,0,1,1.78-.25,2.87,2.87,0,0,1,1.75.92A3.37,3.37,0,0,1,321.32,206.56Z" style="fill:#fff"></path></g><rect x="289.38" y="207.57" width="84.66" height="47.08" transform="translate(-63.19 144.53) rotate(-22.5)" style="fill:#407BFF"></rect><rect x="289.38" y="207.57" width="84.66" height="47.08" transform="translate(-63.19 144.53) rotate(-22.5)" style="fill:#fff;opacity:0.30000000000000004"></rect><path d="M373.48,231.27l-12.35-29.81a3.6,3.6,0,0,1-4.71-2l-64.53,26.73a3.62,3.62,0,0,1-1.95,4.72l12.35,29.81a3.6,3.6,0,0,1,4.71,1.95L371.53,236A3.61,3.61,0,0,1,373.48,231.27Z" style="fill:#fff;opacity:0.8"></path><path d="M328.78,229.41a.93.93,0,0,0,.59.54,2.78,2.78,0,0,0,1.08.07l-1-2.32a2,2,0,0,0-.72.84A1.19,1.19,0,0,0,328.78,229.41Z" style="fill:#407BFF"></path><path d="M333.26,232.16l.93,2.25a1.91,1.91,0,0,0,.71-.79,1.06,1.06,0,0,0,0-.82.91.91,0,0,0-.58-.55A2.83,2.83,0,0,0,333.26,232.16Z" style="fill:#407BFF"></path><path d="M326.66,218.91a13.2,13.2,0,1,0,17.25,7.15A13.2,13.2,0,0,0,326.66,218.91Zm10.76,15.3a5.15,5.15,0,0,1-2.34,2.36l.76,1.83-1.63.68-.74-1.78a9.57,9.57,0,0,1-2.48.53,6.44,6.44,0,0,1-2.13-.15l.07-2.37a6.28,6.28,0,0,0,1.77.16,7,7,0,0,0,1.88-.31l-1.13-2.74a13.77,13.77,0,0,1-2.22.2,3.8,3.8,0,0,1-1.76-.45,3,3,0,0,1-1.27-1.54,3.44,3.44,0,0,1,0-2.74,5.12,5.12,0,0,1,2.36-2.37l-.75-1.81,1.64-.68.73,1.78a7.82,7.82,0,0,1,3.74-.38v2.35a7.09,7.09,0,0,0-2.85.19l1.15,2.78a13.37,13.37,0,0,1,2.19-.21,3.75,3.75,0,0,1,1.74.45,2.9,2.9,0,0,1,1.26,1.52A3.34,3.34,0,0,1,337.42,234.21Z" style="fill:#407BFF"></path><g style="opacity:0.30000000000000004"><path d="M328.78,229.41a.93.93,0,0,0,.59.54,2.78,2.78,0,0,0,1.08.07l-1-2.32a2,2,0,0,0-.72.84A1.19,1.19,0,0,0,328.78,229.41Z" style="fill:#fff"></path><path d="M333.26,232.16l.93,2.25a1.91,1.91,0,0,0,.71-.79,1.06,1.06,0,0,0,0-.82.91.91,0,0,0-.58-.55A2.83,2.83,0,0,0,333.26,232.16Z" style="fill:#fff"></path><path d="M326.66,218.91a13.2,13.2,0,1,0,17.25,7.15A13.2,13.2,0,0,0,326.66,218.91Zm10.76,15.3a5.15,5.15,0,0,1-2.34,2.36l.76,1.83-1.63.68-.74-1.78a9.57,9.57,0,0,1-2.48.53,6.44,6.44,0,0,1-2.13-.15l.07-2.37a6.28,6.28,0,0,0,1.77.16,7,7,0,0,0,1.88-.31l-1.13-2.74a13.77,13.77,0,0,1-2.22.2,3.8,3.8,0,0,1-1.76-.45,3,3,0,0,1-1.27-1.54,3.44,3.44,0,0,1,0-2.74,5.12,5.12,0,0,1,2.36-2.37l-.75-1.81,1.64-.68.73,1.78a7.82,7.82,0,0,1,3.74-.38v2.35a7.09,7.09,0,0,0-2.85.19l1.15,2.78a13.37,13.37,0,0,1,2.19-.21,3.75,3.75,0,0,1,1.74.45,2.9,2.9,0,0,1,1.26,1.52A3.34,3.34,0,0,1,337.42,234.21Z" style="fill:#fff"></path></g><rect x="295.3" y="237.33" width="84.66" height="47.08" style="fill:#407BFF"></rect><path d="M376.16,277V244.74a3.61,3.61,0,0,1-3.61-3.61H302.71a3.61,3.61,0,0,1-3.61,3.61V277a3.61,3.61,0,0,1,3.61,3.61h69.84A3.61,3.61,0,0,1,376.16,277Z" style="fill:#fff;opacity:0.8"></path><path d="M335.58,258.18a.92.92,0,0,0,.33.73,2.79,2.79,0,0,0,1,.48v-2.52a1.93,1.93,0,0,0-1,.51A1.12,1.12,0,0,0,335.58,258.18Z" style="fill:#263238"></path><path d="M338.66,262.43v2.45a2,2,0,0,0,.95-.46,1,1,0,0,0,.32-.77.93.93,0,0,0-.32-.72A2.89,2.89,0,0,0,338.66,262.43Z" style="fill:#263238"></path><path d="M337.63,247.67a13.21,13.21,0,1,0,13.21,13.2A13.2,13.2,0,0,0,337.63,247.67Zm4.09,18.26a5.14,5.14,0,0,1-3.06,1.28v2h-1.77v-1.93a9.71,9.71,0,0,1-2.5-.46,6.19,6.19,0,0,1-1.91-1l1-2.16a6.38,6.38,0,0,0,1.58.83,7,7,0,0,0,1.86.43v-3a13.16,13.16,0,0,1-2.13-.67,3.81,3.81,0,0,1-1.45-1.09,2.91,2.91,0,0,1-.58-1.9,3.4,3.4,0,0,1,1.07-2.53,5.06,5.06,0,0,1,3.09-1.28v-2h1.77v1.93a7.8,7.8,0,0,1,3.59,1.08l-.88,2.18a7.1,7.1,0,0,0-2.71-.92v3a12.52,12.52,0,0,1,2.1.65,3.66,3.66,0,0,1,1.44,1.08,2.85,2.85,0,0,1,.58,1.88A3.34,3.34,0,0,1,341.72,265.93Z" style="fill:#263238"></path></g><g id="freepik--Arrow--inject-10"><path d="M277.07,241.64h0a1.12,1.12,0,0,0-1.1,1.15l0,1.69a29,29,0,0,0-38.09,1,1.12,1.12,0,0,0,0,1.61h0a1.14,1.14,0,0,0,1.57,0,26.7,26.7,0,0,1,35.07-.93l-1.87,0a1.14,1.14,0,0,0-1.1,1.16h0a1.12,1.12,0,0,0,1.15,1.09l5.63-.13-.14-5.63A1.12,1.12,0,0,0,277.07,241.64Z" style="fill:#407BFF"></path></g><g id="freepik--device-1--inject-10"><path d="M218.34,354.56H146.12a14.72,14.72,0,0,1-14.71-14.71V167.23a14.72,14.72,0,0,1,14.71-14.71h72.22a14.72,14.72,0,0,1,14.71,14.71V339.85A14.72,14.72,0,0,1,218.34,354.56Z" style="fill:#407BFF"></path><path d="M214.59,354.56H142.37a14.72,14.72,0,0,1-14.71-14.71V167.23a14.72,14.72,0,0,1,14.71-14.71h72.22a14.72,14.72,0,0,1,14.71,14.71V339.85A14.72,14.72,0,0,1,214.59,354.56Z" style="fill:#263238"></path><path d="M214.59,155.9H195.82A2.43,2.43,0,0,0,193.4,158l-.08.59a6,6,0,0,1-5.92,5.21H169.56a6,6,0,0,1-5.92-5.21l-.07-.59a2.45,2.45,0,0,0-2.43-2.13H142.37A11.33,11.33,0,0,0,131,167.23V339.85a11.33,11.33,0,0,0,11.33,11.33h72.22a11.34,11.34,0,0,0,11.34-11.33V167.23A11.34,11.34,0,0,0,214.59,155.9Z" style="fill:#407BFF"></path><path d="M214.59,155.9H195.82A2.43,2.43,0,0,0,193.4,158l-.08.59a6,6,0,0,1-5.92,5.21H169.56a6,6,0,0,1-5.92-5.21l-.07-.59a2.45,2.45,0,0,0-2.43-2.13H142.37A11.33,11.33,0,0,0,131,167.23V339.85a11.33,11.33,0,0,0,11.33,11.33h72.22a11.34,11.34,0,0,0,11.34-11.33V167.23A11.34,11.34,0,0,0,214.59,155.9Z" style="fill:#fff;opacity:0.8"></path><g style="opacity:0.7000000000000001"><path d="M174.11,157.81a1.44,1.44,0,1,1-1.43-1.43A1.43,1.43,0,0,1,174.11,157.81Z"></path><path d="M184.28,156.38h-4.92a1.43,1.43,0,0,0,0,2.86h4.92a1.43,1.43,0,1,0,0-2.86Z"></path></g><rect x="138.9" y="162.28" width="1.52" height="1.52" style="fill:#407BFF"></rect><polygon points="141.93 162.28 141.93 163.8 143.45 163.8 143.45 162.28 143.45 160.76 141.93 160.76 141.93 162.28" style="fill:#407BFF"></polygon><polygon points="144.97 159.25 144.97 160.76 144.97 162.28 144.97 163.8 146.49 163.8 146.49 162.28 146.49 160.76 146.49 159.25 144.97 159.25" style="fill:#407BFF"></polygon><path d="M210.28,159.35v1.11h-.74v2.23h.74v1.11H217v-4.45Zm3,3.34H211v-2.23h2.23Z" style="fill:#407BFF"></path><path d="M186.68,194.57h-2.25v-5.43a6.14,6.14,0,1,0-12.27,0v5.43h-2.25v-5.43a8.39,8.39,0,1,1,16.77,0Z" style="fill:#263238"></path><path d="M167.67,192.5V210h21.25V192.5Zm11.75,8.69V204a1.12,1.12,0,0,1-1.12,1.12h0a1.12,1.12,0,0,1-1.12-1.12v-2.83a2.07,2.07,0,1,1,2.24,0Z" style="fill:#263238"></path><rect x="158.81" y="246.58" width="38.25" height="25.5" rx="3.95" style="fill:#407BFF"></rect><rect x="158.81" y="250.95" width="38.25" height="6.77" style="fill:#263238"></rect><g style="opacity:0.6000000000000001"><path d="M179.81,269H164.05a1.5,1.5,0,0,1-1.5-1.5h0a1.5,1.5,0,0,1,1.5-1.5h15.76a1.5,1.5,0,0,1,1.5,1.5h0A1.5,1.5,0,0,1,179.81,269Z" style="fill:#fff"></path><rect x="188.06" y="263.73" width="5.25" height="5.25" rx="1.95" style="fill:#fff"></rect></g><path d="M204.84,319.85V299.5h-8.65V280h5.09a3.72,3.72,0,0,0,3.71-3.71V242.37a3.72,3.72,0,0,0-3.71-3.71h-46a3.72,3.72,0,0,0-3.71,3.71v33.92a3.72,3.72,0,0,0,3.71,3.71h5.08v15.57h-8.64V309a1.06,1.06,0,0,0-.47.87,1.07,1.07,0,1,0,2.13,0A1,1,0,0,0,153,309V296.77h8.64V288h7.45V326a1.06,1.06,0,1,0,1.2,0V286.75H161.6V280h16.1v62.91a1.08,1.08,0,0,0-.47.88,1.07,1.07,0,1,0,1.67-.88V308.58h7.44v19a1.05,1.05,0,0,0-.46.88,1.07,1.07,0,1,0,1.66-.88V307.38H178.9V280H195v6.75h-8.65v7.76a1,1,0,0,0-.46.87,1.07,1.07,0,1,0,2.13,0,1.06,1.06,0,0,0-.47-.87V288H195v22.69a1.06,1.06,0,1,0,1.2,0V300.7h7.45v19.15a1.06,1.06,0,1,0,1.2,0Zm-51.73-43.56V242.37a2.21,2.21,0,0,1,2.21-2.21h46a2.21,2.21,0,0,1,2.21,2.21v33.92a2.21,2.21,0,0,1-2.21,2.21h-46A2.21,2.21,0,0,1,153.11,276.29Z" style="fill:#263238;opacity:0.1"></path><path d="M140.14,227.39a2.55,2.55,0,0,1-1-.5l.37-.83a3.25,3.25,0,0,0,.87.46,3.43,3.43,0,0,0,1,.17,1.86,1.86,0,0,0,1-.2.64.64,0,0,0,.32-.55.54.54,0,0,0-.18-.41,1.39,1.39,0,0,0-.45-.25c-.18-.06-.43-.13-.74-.2a8.44,8.44,0,0,1-1.07-.32,1.71,1.71,0,0,1-.7-.49,1.28,1.28,0,0,1-.29-.9,1.48,1.48,0,0,1,.26-.87,1.79,1.79,0,0,1,.78-.63,3.25,3.25,0,0,1,1.28-.23,4.07,4.07,0,0,1,1,.14,2.71,2.71,0,0,1,.88.37l-.33.84a3.5,3.5,0,0,0-.8-.34,2.82,2.82,0,0,0-.8-.12,1.69,1.69,0,0,0-.94.22.65.65,0,0,0-.31.57.5.5,0,0,0,.18.4,1.22,1.22,0,0,0,.45.25l.74.21a7.8,7.8,0,0,1,1.06.31,1.71,1.71,0,0,1,.7.49,1.26,1.26,0,0,1,.29.89,1.43,1.43,0,0,1-.26.86,1.7,1.7,0,0,1-.78.62,3.13,3.13,0,0,1-1.29.23A4.24,4.24,0,0,1,140.14,227.39Z" style="fill:#263238"></path><path d="M149.16,226.6v.9h-4.33v-5.77H149v.89H145.9v1.51h2.79V225H145.9v1.59Z" style="fill:#263238"></path><path d="M151.42,227.2a2.81,2.81,0,0,1-1.1-1.06,3.11,3.11,0,0,1,0-3,2.83,2.83,0,0,1,1.11-1.06,3.22,3.22,0,0,1,1.58-.39,3.42,3.42,0,0,1,1.3.25,2.75,2.75,0,0,1,1,.72l-.7.65a2,2,0,0,0-1.54-.68,2.19,2.19,0,0,0-1.06.26,1.92,1.92,0,0,0-.74.73,2.08,2.08,0,0,0-.26,1,2.15,2.15,0,0,0,.26,1,1.83,1.83,0,0,0,.74.72,2.08,2.08,0,0,0,1.06.26,2,2,0,0,0,1.54-.68l.7.66a2.7,2.7,0,0,1-1,.72,3.38,3.38,0,0,1-1.3.24A3.21,3.21,0,0,1,151.42,227.2Z" style="fill:#263238"></path><path d="M156.91,226.91a2.6,2.6,0,0,1-.67-1.93v-3.25h1.07v3.21c0,1.14.49,1.7,1.47,1.7s1.46-.56,1.46-1.7v-3.21h1V225a2.64,2.64,0,0,1-.66,1.93,2.92,2.92,0,0,1-3.72,0Z" style="fill:#263238"></path><path d="M166.58,227.5l-1.19-1.69h-1.52v1.68H162.8v-5.77h2.37a3.29,3.29,0,0,1,1.31.24,1.94,1.94,0,0,1,.85.71,2,2,0,0,1,.3,1.1,2,2,0,0,1-.32,1.12,1.8,1.8,0,0,1-.91.7l1.33,1.9Zm-.39-4.57a1.64,1.64,0,0,0-1.07-.3h-1.25v2.31h1.25a1.59,1.59,0,0,0,1.07-.31,1.18,1.18,0,0,0,0-1.7Z" style="fill:#263238"></path><path d="M173.16,226.6v.9h-4.33v-5.77H173v.89H169.9v1.51h2.79V225H169.9v1.59Z" style="fill:#263238"></path><path d="M180.31,222a2,2,0,0,1,.86.71,2,2,0,0,1,.3,1.1,2,2,0,0,1-.3,1.09,1.92,1.92,0,0,1-.86.72,3.24,3.24,0,0,1-1.3.24H177.7v1.67h-1.07v-5.77H179A3.24,3.24,0,0,1,180.31,222Zm-.29,2.66a1.16,1.16,0,0,0,0-1.7,1.61,1.61,0,0,0-1.06-.3H177.7v2.3H179A1.61,1.61,0,0,0,180,224.63Z" style="fill:#263238"></path><path d="M186,226.16h-2.89l-.57,1.34h-1.11l2.6-5.77h1.06l2.6,5.77h-1.12Zm-.36-.84-1.09-2.52-1.08,2.52Z" style="fill:#263238"></path><path d="M190.57,225.46v2H189.5v-2l-2.27-3.75h1.15l1.69,2.81,1.71-2.81h1.05Z" style="fill:#263238"></path><path d="M198.76,227.5v-3.83l-1.9,3.17h-.48l-1.89-3.12v3.78h-1v-5.77h.89l2.29,3.82,2.25-3.82h.88v5.77Z" style="fill:#263238"></path><path d="M205.66,226.6v.9h-4.33v-5.77h4.22v.89H202.4v1.51h2.79V225H202.4v1.59Z" style="fill:#263238"></path><path d="M212,221.73v5.77h-.88l-3.19-3.91v3.91h-1.06v-5.77h.88l3.19,3.91v-3.91Z" style="fill:#263238"></path><path d="M214.71,222.63H212.8v-.9h4.9v.9h-1.91v4.87h-1.08Z" style="fill:#263238"></path><path d="M198,131.22a1.5,1.5,0,0,1-1.5-1.5c0-2.85-7.62-9.56-18-9.56-10,0-18,6.87-18,9.56a1.5,1.5,0,0,1-3,0c0-4.84,9.63-12.56,21-12.56,11.62,0,21,7.6,21,12.56A1.5,1.5,0,0,1,198,131.22Z" style="fill:#407BFF"></path><path d="M192.49,138.8a1.5,1.5,0,0,1-1.5-1.5c0-1.86-5.41-6.43-12.51-6.43S166,135.79,166,137.3a1.5,1.5,0,0,1-3,0c0-3.64,7.1-9.43,15.51-9.43,8.21,0,15.51,5.27,15.51,9.43A1.5,1.5,0,0,1,192.49,138.8Z" style="fill:#407BFF"></path><path d="M170,146.41a1.52,1.52,0,0,1-1.5-1.53c0-2.75,4.84-6.3,10-6.3,5.37,0,10,3.46,10,6.3a1.5,1.5,0,0,1-3,0c-.12-.84-3-3.3-7-3.3s-6.8,2.55-7,3.35A1.48,1.48,0,0,1,170,146.41Z" style="fill:#407BFF"></path></g><g id="freepik--Character--inject-10"><path d="M106.19,258.26a402.71,402.71,0,0,0-8.75,78.84c-.49,43.8,4.28,66.68,4.28,66.68h8.94s3.17-36.83,2.57-55.95c0-1.77-.14-3.37-.27-4.75a50.63,50.63,0,0,1,.68-14.33h0l4.44-22.92h0a52.69,52.69,0,0,1,3.22-10.48c.13-.3.26-.62.39-1,2.85-7,6.92-20.6,4.23-36.14Z" style="fill:#407BFF"></path><path d="M121.69,294.4a71.36,71.36,0,0,0,4.56-17.35c-1-4.14-2.3-13.54-4.12-9.53-3.39,7.46-3.13,27.28-2.78,33.23a52.74,52.74,0,0,1,2-5.4C121.43,295.05,121.56,294.73,121.69,294.4Z" style="opacity:0.1"></path><path d="M104.13,404.27l6.66,0a.62.62,0,0,1,.61.49l1.37,6.26a1,1,0,0,1-.77,1.24l-.22,0c-2.77-.05-5.24-.21-8.69-.21-4.08,0-3,.48-7.84.53-2.89,0-3.41-3.25-2.18-3.41,5.6-.69,7.22-2.4,9.39-4.4A2.48,2.48,0,0,1,104.13,404.27Z" style="fill:#263238"></path><polygon points="100.18 401.45 101.23 405.02 111.73 405.02 112.1 401.45 100.18 401.45" style="fill:#407BFF"></polygon><polygon points="100.18 401.45 101.23 405.02 111.73 405.02 112.1 401.45 100.18 401.45" style="fill:#fff;opacity:0.5"></polygon><path d="M120.49,258.26s1.3,62.75,17.64,145.59l9.18-.2s-1.69-46.54-4.26-65.6c-.1-.72-.2-1.4-.3-2a73.74,73.74,0,0,1-.89-14.39l0-.42,1.26-32.09a162.08,162.08,0,0,0-2.78-30.86Z" style="fill:#407BFF"></path><path d="M140.29,404.27l6.66,0a.61.61,0,0,1,.6.49l1.38,6.26a1,1,0,0,1-.77,1.24l-.22,0c-2.78-.05-5.24-.21-8.7-.21-4.07,0-3,.48-7.83.53-2.89,0-3.41-3.25-2.19-3.41,5.61-.69,7.23-2.4,9.4-4.4A2.46,2.46,0,0,1,140.29,404.27Z" style="fill:#263238"></path><path d="M100.59,211.63H96.48a1.75,1.75,0,0,1-1.7-1.56l-1-11.84a1.41,1.41,0,0,1,1.42-1.57h4.11a1.73,1.73,0,0,1,1.7,1.57l1,11.84A1.41,1.41,0,0,1,100.59,211.63Z" style="fill:#407BFF"></path><path d="M100.09,211.63H96a1.73,1.73,0,0,1-1.7-1.56l-1-11.84a1.41,1.41,0,0,1,1.43-1.57h4.1a1.75,1.75,0,0,1,1.71,1.57l1,11.84A1.41,1.41,0,0,1,100.09,211.63Z" style="fill:#263238"></path><path d="M95.85,198.32a.8.8,0,0,1-.82.9,1,1,0,0,1-1-.9.83.83,0,0,1,.83-.91A1,1,0,0,1,95.85,198.32Z" style="fill:#fff;opacity:0.30000000000000004"></path><path d="M95.36,198.32a.38.38,0,0,1-.38.41.46.46,0,0,1-.44-.41.37.37,0,0,1,.37-.41A.46.46,0,0,1,95.36,198.32Z" style="opacity:0.30000000000000004"></path><path d="M109.42,207.55a.68.68,0,0,0-1.16-.34,48.85,48.85,0,0,0-8.13,12.68C96,229,83.44,233.2,87.21,239s19.08-10.53,22-15C111.5,220.34,110.05,211,109.42,207.55Z" style="fill:#263238"></path><path d="M95.41,237.68a19.55,19.55,0,0,0,.91-12.31c-1.94,2.11-4.12,3.92-5.93,5.6l-2.75,5.33a27.14,27.14,0,0,0,.2,3.33C89.48,240.89,92.31,239.8,95.41,237.68Z" style="opacity:0.6000000000000001"></path><path d="M110,211.06l-2.17-.68s-3.23,6.72-5,20.92a55.1,55.1,0,0,0,6.32-7.34C110.92,221.24,110.54,215.31,110,211.06Z" style="opacity:0.6000000000000001"></path><path d="M108.5,207.86c-1.29,3.54-2.76,13.74-2.74,37.16,0,5-.77,17-.77,17h36.66l5.18-53.88a1.67,1.67,0,0,0-1.67-1.84H110.75A2.39,2.39,0,0,0,108.5,207.86Z" style="fill:#407BFF"></path><path d="M108.5,207.86c-1.29,3.54-2.76,13.74-2.74,37.16,0,5-.77,17-.77,17h36.66l5.18-53.88a1.67,1.67,0,0,0-1.67-1.84H110.75A2.39,2.39,0,0,0,108.5,207.86Z" style="fill:#fff;opacity:0.5"></path><path d="M126.46,204.82a16.64,16.64,0,0,1-3.31.07c-.32,0-.67,0-1.06,0-3,0-7.47.92-6.67,7.1a2.54,2.54,0,0,1,3.32-.39s1.56,5.31,2.72,6.87c0,0,6.29-4.17,8.19-5.73s4.62,1.11,4.62,1.11,6-9.79-6.15-9.13C127.6,204.7,127.05,204.75,126.46,204.82Z" style="fill:#263238"></path><path d="M125.79,205.57c-3.28.37-10.37-2.12-4.26,12.18C121.53,217.75,144.85,203.41,125.79,205.57Z" style="fill:#ebb376"></path><path d="M144.48,212.69l-2.08,1.77a48.84,48.84,0,0,0,1.79,21.17h0l1.94-20.22Z" style="opacity:0.1"></path><path d="M144,207.42s-3.58,2.34-3.24,11.67C140.8,219.09,137.2,210.35,144,207.42Z" style="opacity:0.1"></path><path d="M110.16,207.62s-3.48,7.2-2.38,19.92Z" style="opacity:0.1"></path><path d="M129.59,191.22A50.68,50.68,0,0,0,132.71,207s-6.36,5.2-10.93,1a10.14,10.14,0,0,0,.13-7.57C120.35,196.29,129.59,191.22,129.59,191.22Z" style="fill:#ebb376"></path><path d="M129.57,194.81H127l-5.22,4.31a2.87,2.87,0,0,0,.14,1.3,10,10,0,0,1,.63,4.39C129.94,203.9,129.57,194.81,129.57,194.81Z" style="opacity:0.1"></path><path d="M112.15,180.7c-3.58,2.32-2.52,8.13,1.21,10.52C114.42,184.56,112.15,180.7,112.15,180.7Z" style="fill:#263238"></path><path d="M112.15,180.7c-3.58,2.32-2.52,8.13,1.21,10.52C114.42,184.56,112.15,180.7,112.15,180.7Z" style="fill:#fff;opacity:0.2"></path><path d="M128.55,184.52c1.34,6.13,2.44,9.63.32,13.68a8.14,8.14,0,0,1-11,3.56,8.05,8.05,0,0,1-3.47-3.39c-2.82-5-4.55-14.16.59-18.43a8.24,8.24,0,0,1,11.63.76A8.34,8.34,0,0,1,128.55,184.52Z" style="fill:#ebb376"></path><path d="M120,189.12c.15.48,0,1-.33,1s-.68-.21-.82-.69,0-1,.34-1S119.88,188.63,120,189.12Z" style="fill:#263238"></path><path d="M114.55,190.88c.14.49,0,1-.33,1s-.69-.21-.83-.7,0-1,.34-1.05S114.41,190.39,114.55,190.88Z" style="fill:#263238"></path><path d="M116.36,190.56a19.27,19.27,0,0,1-1.11,4.93,2.91,2.91,0,0,0,2.44-.28Z" style="fill:#d58745"></path><path d="M121.2,186.78a.38.38,0,0,0,.13-.06.3.3,0,0,0,0-.41h0a2.87,2.87,0,0,0-2.68-.48.3.3,0,0,0-.17.38h0a.3.3,0,0,0,.38.17h0a2.34,2.34,0,0,1,2.09.37A.27.27,0,0,0,121.2,186.78Z" style="fill:#263238"></path><path d="M111.66,189.74a.32.32,0,0,0,.17-.22,2.46,2.46,0,0,1,1.24-1.83.3.3,0,0,0-.26-.54h0a3.09,3.09,0,0,0-1.56,2.26.29.29,0,0,0,.24.34h0A.25.25,0,0,0,111.66,189.74Z" style="fill:#263238"></path><path d="M120.13,197.35a4.74,4.74,0,0,1-.85.17.16.16,0,0,1-.19-.14h0a.17.17,0,0,1,.16-.19,4.7,4.7,0,0,0,3.53-2.28.16.16,0,0,1,.23-.08.18.18,0,0,1,.08.23A4.8,4.8,0,0,1,120.13,197.35Z" style="fill:#263238"></path><path d="M129.57,177.08s6.9,2.08.49,19.43l-1.56-6.75s-3.57,1-4.47-8.07Z" style="fill:#263238"></path><path d="M129.57,177.08s6.9,2.08.49,19.43l-1.56-6.75s-3.57,1-4.47-8.07Z" style="fill:#fff;opacity:0.2"></path><path d="M132.25,188.87a5.58,5.58,0,0,1-1.55,3.75c-1.29,1.31-2.76.32-3.09-1.4-.3-1.57,0-4.12,1.64-4.77S132.27,187.14,132.25,188.87Z" style="fill:#ebb376"></path><path d="M123.6,183.4c-3.9,3-13.25,2.39-15.94-1.34-2.93-4.08,1.48-7.53,5.46-8.77a2,2,0,0,1,2.43,1.55.73.73,0,0,0,.28.46,16,16,0,0,1,2.74-1.92,3.56,3.56,0,0,1,4.15.73c.46.42,1.59.51,3.86-.26,4.71-1.59,5.35,3.23,3.22,4.52C128.09,179.41,125.17,182.17,123.6,183.4Z" style="fill:#263238"></path><path d="M144.46,258.26l-4.17,6a22.29,22.29,0,0,0-3.47-.6,15,15,0,0,0-2.29.6l6.85,6.75,7.09-9.83Z" style="fill:#ebb376"></path><path d="M145.89,207.12a1.1,1.1,0,0,1,1.7.38c2.53,5.42,12.49,27.47,11.19,36.33-1.49,10.13-12.36,21.9-12.36,21.9l-4.92-4.17s8-13.56,8-20.56c0-4.62-2.77-9.83-4.48-14.46S139.54,212.53,145.89,207.12Z" style="fill:#263238"></path><path d="M90.73,225.62l3.64-6.72A20.78,20.78,0,0,1,92.15,215c-.34-1.47.33-6.06.33-6.06a1.57,1.57,0,0,1,1.41-1.48l2.86-.3a1.58,1.58,0,0,1,1.73,1.43s1.13,6.67.82,8.88c-.4,2.85-4.17,10.72-4.17,10.72Z" style="fill:#ebb376"></path><path d="M91.88,222l5.56,2s-3.77,18.5-9.43,16.12S91.88,222,91.88,222Z" style="fill:#263238"></path><polygon points="136.43 401.39 137.47 404.97 147.98 404.97 148.35 401.39 136.43 401.39" style="fill:#407BFF"></polygon><polygon points="136.43 401.39 137.47 404.97 147.98 404.97 148.35 401.39 136.43 401.39" style="fill:#fff;opacity:0.5"></polygon></g></svg>